<?xml version="1.0"?>
<svg height="50" xmlns="http://www.w3.org/2000/svg" xmlns:svg="http://www.w3.org/2000/svg">
 <g class="layer">
  <title>Layer 1</title>
  <path d="m13.26,20.47a0.42,0.42 0 0 1 -0.42,0.42l-6.68,0a0.42,0.42 0 1 1 0,-0.84l6.68,0a0.42,0.42 0 0 1 0.42,0.42zm5.58,-3.55a1.24,1.24 0 0 1 -1.08,0.63l-16.5,0a1.25,1.25 0 0 1 -1.08,-1.88c0.65,-1.11 1.42,-3.21 1.42,-6.89l0,-0.84a7.93,7.93 0 0 1 7.92,-7.94c0.02,0 0.04,0 0.06,0c4.33,0.03 7.86,3.64 7.86,8.03l0,0.74c0,3.68 0.77,5.78 1.42,6.89a1.24,1.24 0 0 1 0,1.26zm-0.73,-0.84c-0.7,-1.2 -1.53,-3.44 -1.53,-7.31l0,-0.74c0,-3.94 -3.15,-7.17 -7.03,-7.2c-0.02,0 -0.04,0 -0.05,0a7.09,7.09 0 0 0 -7.08,7.1l0,0.84c0,3.86 -0.83,6.11 -1.53,7.31a0.41,0.41 0 0 0 0,0.42a0.41,0.41 0 0 0 0.36,0.21l16.5,0a0.41,0.41 0 0 0 0.36,-0.21a0.41,0.41 0 0 0 0,-0.42z" fill="#ffffff" id="svg_1"/>
 </g>
</svg>
