<?xml version="1.0"?>
<svg width="auto" height="32" xmlns="http://www.w3.org/2000/svg" xmlns:svg="http://www.w3.org/2000/svg">
 <g class="layer">
  <title>Layer 1</title>
  <path d="m127,196a4,4 0 0 1 -4,4l-64,0a4,4 0 1 1 0,-8l64,0a4,4 0 0 1 4,4zm53.39,-34a11.84,11.84 0 0 1 -10.37,6l-158.04,0a12,12 0 0 1 -10.34,-18.05c6.19,-10.64 13.56,-30.72 13.56,-65.95l0,-8a75.9,75.9 0 0 1 75.8,-76c0.19,0 0.38,0 0.58,0c41.48,0.31 75.22,34.81 75.22,76.9l0,7.1c0,35.23 7.37,55.31 13.56,65.95a11.92,11.92 0 0 1 0.03,12.05zm-6.95,-8.03c-6.68,-11.49 -14.64,-32.96 -14.64,-69.97l0,-7.1c0,-37.71 -30.18,-68.62 -67.28,-68.9c-0.17,0 -0.35,0 -0.52,0a67.9,67.9 0 0 0 -67.8,68l0,8c0,37.01 -7.96,58.48 -14.64,69.97a3.97,3.97 0 0 0 -0.01,4.04a3.89,3.89 0 0 0 3.43,1.99l158.04,0a3.9,3.9 0 0 0 3.43,-1.99a3.97,3.97 0 0 0 -0.01,-4.04z" fill="#ffffff" id="svg_1"/>
 </g>
</svg>
