<svg xmlns="http://www.w3.org/2000/svg" xmlns:xlink="http://www.w3.org/1999/xlink" width="300" zoomAndPan="magnify" viewBox="0 0 224.87999 84.749999" height="113" preserveAspectRatio="xMidYMid meet" version="1.0"><defs><g/><clipPath id="413f463841"><path d="M 0.269531 19 L 38 19 L 38 57 L 0.269531 57 Z M 0.269531 19 " clip-rule="nonzero"/></clipPath><clipPath id="1874738ab9"><path d="M 19 37 L 66 37 L 66 84.5 L 19 84.5 Z M 19 37 " clip-rule="nonzero"/></clipPath><clipPath id="a1dfd43667"><path d="M 28 0.246094 L 57 0.246094 L 57 29 L 28 29 Z M 28 0.246094 " clip-rule="nonzero"/></clipPath><clipPath id="0fa780ecd8"><path d="M 79 22 L 224.488281 22 L 224.488281 54 L 79 54 Z M 79 22 " clip-rule="nonzero"/></clipPath><clipPath id="663a0aae4e"><path d="M 117 57 L 224.488281 57 L 224.488281 69 L 117 69 Z M 117 57 " clip-rule="nonzero"/></clipPath><clipPath id="e7f522ca0e"><path d="M 217 72 L 224.488281 72 L 224.488281 80 L 217 80 Z M 217 72 " clip-rule="nonzero"/></clipPath></defs><g clip-path="url(#413f463841)"><path fill="#000000" d="M 4.953125 37.828125 L 19.003906 51.921875 L 33.058594 37.828125 L 19.003906 23.734375 L 4.953125 37.828125 M 19.003906 19.035156 L 37.742188 37.828125 L 19.003906 56.621094 L 0.265625 37.828125 L 19.003906 19.035156 " fill-opacity="1" fill-rule="evenodd"/></g><path fill="#000000" d="M 19.003906 42.527344 L 23.6875 37.828125 L 19.003906 33.132812 L 14.320312 37.828125 L 19.003906 42.527344 M 9.636719 37.828125 L 19.003906 28.433594 L 28.375 37.828125 L 19.003906 47.226562 L 9.636719 37.828125 " fill-opacity="1" fill-rule="evenodd"/><g clip-path="url(#1874738ab9)"><path fill="#000000" d="M 61.164062 61.320312 L 42.425781 42.527344 L 23.6875 61.320312 L 42.425781 80.113281 L 61.164062 61.320312 M 65.847656 61.320312 L 42.425781 84.808594 L 19.003906 61.320312 L 42.425781 37.828125 L 65.847656 61.320312 " fill-opacity="1" fill-rule="evenodd"/></g><path fill="#000000" d="M 51.796875 61.320312 L 42.425781 51.921875 L 33.058594 61.320312 L 42.425781 70.714844 L 51.796875 61.320312 M 56.480469 61.320312 L 42.425781 75.414062 L 28.375 61.320312 L 42.425781 47.226562 L 56.480469 61.320312 " fill-opacity="1" fill-rule="evenodd"/><path fill="#000000" d="M 47.113281 61.316406 L 42.429688 66.015625 L 37.746094 61.316406 L 42.429688 56.617188 L 47.113281 61.316406 " fill-opacity="1" fill-rule="evenodd"/><g clip-path="url(#a1dfd43667)"><path fill="#000000" d="M 33.058594 14.339844 L 42.425781 23.734375 L 51.796875 14.339844 L 42.425781 4.941406 L 33.058594 14.339844 M 28.375 14.339844 L 42.425781 0.246094 L 56.480469 14.339844 L 42.425781 28.433594 L 28.375 14.339844 " fill-opacity="1" fill-rule="evenodd"/></g><path fill="#000000" d="M 37.746094 14.335938 L 42.429688 9.636719 L 47.113281 14.335938 L 42.429688 19.035156 L 37.746094 14.335938 " fill-opacity="1" fill-rule="evenodd"/><path fill="#000000" d="M 65.847656 33.132812 L 61.164062 37.828125 L 65.847656 42.527344 L 70.535156 37.828125 L 65.847656 33.132812 M 75.21875 37.828125 L 65.847656 47.226562 L 56.480469 37.828125 L 65.847656 28.433594 L 75.21875 37.828125 " fill-opacity="1" fill-rule="evenodd"/><g clip-path="url(#0fa780ecd8)"><path fill="#000000" d="M 79.363281 23.542969 L 91.488281 23.542969 C 95.851562 23.542969 99.421875 24.777344 102.207031 27.246094 C 103.707031 28.5625 104.84375 30.152344 105.621094 32.019531 C 106.394531 33.882812 106.785156 35.957031 106.785156 38.238281 C 106.785156 40.46875 106.382812 42.542969 105.578125 44.460938 C 104.777344 46.378906 103.652344 47.996094 102.207031 49.3125 C 100.867188 50.492188 99.28125 51.398438 97.449219 52.03125 C 95.617188 52.660156 93.628906 52.976562 91.488281 52.976562 L 79.363281 52.976562 Z M 91.488281 47.460938 C 94.003906 47.460938 96.113281 46.804688 97.8125 45.488281 C 99.511719 44.171875 100.359375 41.769531 100.359375 38.28125 C 100.359375 34.789062 99.503906 32.386719 97.789062 31.074219 C 96.078125 29.757812 93.976562 29.101562 91.488281 29.101562 L 85.707031 29.101562 L 85.707031 47.460938 Z M 117.441406 52.453125 C 115.609375 51.730469 114.039062 50.5 112.726562 48.769531 C 111.414062 47.039062 110.757812 44.777344 110.757812 41.984375 C 110.757812 39.191406 111.421875 36.9375 112.746094 35.21875 C 114.070312 33.503906 115.65625 32.28125 117.503906 31.554688 C 119.351562 30.832031 121.101562 30.46875 122.761719 30.46875 C 124.691406 30.46875 126.523438 30.898438 128.261719 31.757812 C 130.003906 32.617188 131.429688 33.878906 132.539062 35.542969 C 133.648438 37.207031 134.230469 39.179688 134.285156 41.460938 C 134.285156 42.160156 134.273438 42.761719 134.246094 43.273438 C 134.21875 43.78125 134.191406 44.105469 134.164062 44.238281 L 116.742188 44.238281 C 117.0625 45.796875 117.863281 46.855469 119.148438 47.421875 C 120.433594 47.984375 121.640625 48.265625 122.761719 48.265625 C 124.207031 48.265625 125.359375 48.003906 126.214844 47.480469 C 127.070312 46.957031 127.808594 46.359375 128.421875 45.6875 L 133.082031 48.386719 C 130.566406 51.824219 127.125 53.539062 122.761719 53.539062 C 121.050781 53.539062 119.277344 53.179688 117.441406 52.453125 Z M 118.667969 36.972656 C 117.625 37.789062 117.035156 38.789062 116.902344 39.972656 L 127.941406 39.972656 C 127.863281 39.273438 127.59375 38.601562 127.140625 37.957031 C 126.683594 37.3125 126.074219 36.785156 125.3125 36.367188 C 124.550781 35.953125 123.6875 35.742188 122.722656 35.742188 C 121.0625 35.742188 119.710938 36.152344 118.667969 36.972656 Z M 135.488281 30.910156 L 142.152344 30.910156 L 147.292969 41.742188 L 152.433594 30.910156 L 159.136719 30.910156 L 147.292969 53.941406 Z M 162.628906 52.976562 L 162.628906 23.542969 L 175.675781 23.542969 C 177.765625 23.542969 179.613281 23.972656 181.21875 24.832031 C 182.824219 25.691406 184.070312 26.898438 184.953125 28.457031 C 185.835938 30.011719 186.277344 31.785156 186.277344 33.769531 C 186.277344 35.890625 185.742188 37.785156 184.671875 39.449219 C 183.601562 41.113281 182.140625 42.332031 180.292969 43.113281 C 182.195312 45.527344 184.722656 48.816406 187.882812 52.976562 L 180.292969 52.976562 C 178.582031 50.828125 176.238281 47.769531 173.269531 43.796875 L 168.933594 43.796875 L 168.933594 52.976562 Z M 175.675781 38.28125 C 176.773438 38.28125 177.765625 37.882812 178.648438 37.09375 C 179.53125 36.300781 179.972656 35.191406 179.972656 33.769531 C 179.972656 32.617188 179.664062 31.542969 179.050781 30.550781 C 178.433594 29.554688 177.308594 29.058594 175.675781 29.058594 L 168.933594 29.058594 L 168.933594 38.28125 Z M 196.332031 52.453125 C 194.5 51.730469 192.929688 50.5 191.617188 48.769531 C 190.304688 47.039062 189.648438 44.777344 189.648438 41.984375 C 189.648438 39.191406 190.3125 36.9375 191.636719 35.21875 C 192.960938 33.503906 194.546875 32.28125 196.394531 31.554688 C 198.242188 30.832031 199.992188 30.46875 201.652344 30.46875 C 203.582031 30.46875 205.414062 30.898438 207.152344 31.757812 C 208.894531 32.617188 210.320312 33.878906 211.429688 35.542969 C 212.539062 37.207031 213.121094 39.179688 213.175781 41.460938 C 213.175781 42.160156 213.164062 42.761719 213.136719 43.273438 C 213.109375 43.78125 213.082031 44.105469 213.054688 44.238281 L 195.632812 44.238281 C 195.953125 45.796875 196.753906 46.855469 198.039062 47.421875 C 199.324219 47.984375 200.527344 48.265625 201.652344 48.265625 C 203.097656 48.265625 204.25 48.003906 205.105469 47.480469 C 205.960938 46.957031 206.699219 46.359375 207.3125 45.6875 L 211.972656 48.386719 C 209.457031 51.824219 206.015625 53.539062 201.652344 53.539062 C 199.941406 53.539062 198.167969 53.179688 196.332031 52.453125 Z M 197.558594 36.972656 C 196.515625 37.789062 195.925781 38.789062 195.792969 39.972656 L 206.832031 39.972656 C 206.753906 39.273438 206.484375 38.601562 206.03125 37.957031 C 205.574219 37.3125 204.964844 36.785156 204.203125 36.367188 C 203.441406 35.953125 202.578125 35.742188 201.613281 35.742188 C 199.953125 35.742188 198.601562 36.152344 197.558594 36.972656 Z M 218.074219 22.535156 L 224.097656 22.535156 L 224.097656 52.976562 L 218.074219 52.976562 Z M 218.074219 22.535156 " fill-opacity="1" fill-rule="nonzero"/></g><g clip-path="url(#663a0aae4e)"><path fill="#000000" d="M 122.394531 57.785156 C 123.914062 57.785156 125.09375 58.320312 125.933594 59.398438 L 125.152344 60.050781 C 124.859375 59.617188 124.472656 59.273438 123.992188 59.027344 C 123.507812 58.78125 122.976562 58.65625 122.394531 58.65625 C 121.121094 58.65625 120.078125 59.078125 119.277344 59.921875 C 118.476562 60.765625 118.0625 61.855469 118.042969 63.195312 C 118.042969 64.523438 118.449219 65.605469 119.253906 66.445312 C 120.0625 67.285156 121.109375 67.714844 122.394531 67.734375 C 122.945312 67.734375 123.507812 67.59375 124.078125 67.316406 C 124.648438 67.042969 125.097656 66.644531 125.425781 66.132812 L 126.210938 66.730469 C 125.300781 67.980469 124.03125 68.605469 122.394531 68.605469 C 120.808594 68.59375 119.535156 68.082031 118.574219 67.0625 C 117.613281 66.046875 117.117188 64.753906 117.085938 63.195312 C 117.085938 61.613281 117.582031 60.320312 118.574219 59.316406 C 119.566406 58.3125 120.839844 57.804688 122.394531 57.785156 Z M 136.90625 64.734375 L 141.617188 64.734375 L 139.296875 59.09375 Z M 139.835938 58.046875 L 144.15625 68.34375 L 143.082031 68.34375 L 141.96875 65.609375 L 136.527344 65.609375 L 135.367188 68.34375 L 134.367188 68.34375 L 138.847656 58.046875 Z M 156.433594 62.582031 C 157.179688 62.582031 157.753906 62.417969 158.160156 62.082031 C 158.566406 61.746094 158.769531 61.304688 158.769531 60.75 C 158.769531 60.199219 158.570312 59.757812 158.175781 59.425781 C 157.777344 59.097656 157.1875 58.929688 156.40625 58.917969 L 154.332031 58.917969 L 154.332031 62.582031 Z M 156.144531 58.046875 C 158.511719 58.046875 159.707031 58.945312 159.726562 60.75 C 159.726562 62.273438 158.851562 63.15625 157.101562 63.398438 L 160.089844 68.34375 L 159 68.34375 L 156.113281 63.457031 L 154.332031 63.457031 L 154.332031 68.34375 L 153.375 68.34375 L 153.375 58.046875 Z M 175.984375 58.046875 L 175.984375 58.917969 L 170.660156 58.917969 L 170.660156 62.582031 L 175.648438 62.582031 L 175.648438 63.457031 L 170.660156 63.457031 L 170.660156 67.46875 L 176.214844 67.46875 L 176.214844 68.34375 L 169.703125 68.34375 L 169.703125 58.046875 Z M 192.320312 58.046875 L 192.320312 58.917969 L 187 58.917969 L 187 62.582031 L 191.988281 62.582031 L 191.988281 63.457031 L 187 63.457031 L 187 67.46875 L 192.554688 67.46875 L 192.554688 68.34375 L 186.042969 68.34375 L 186.042969 58.046875 Z M 205.441406 62.582031 C 206.183594 62.582031 206.757812 62.417969 207.164062 62.082031 C 207.570312 61.746094 207.773438 61.304688 207.773438 60.75 C 207.773438 60.199219 207.578125 59.757812 207.179688 59.425781 C 206.785156 59.097656 206.195312 58.929688 205.410156 58.917969 L 203.335938 58.917969 L 203.335938 62.582031 Z M 205.148438 58.046875 C 207.519531 58.046875 208.710938 58.945312 208.730469 60.75 C 208.730469 62.273438 207.855469 63.15625 206.105469 63.398438 L 209.09375 68.34375 L 208.007812 68.34375 L 205.121094 63.457031 L 203.335938 63.457031 L 203.335938 68.34375 L 202.378906 68.34375 L 202.378906 58.046875 Z M 221.648438 57.785156 C 222.835938 57.785156 223.769531 58.214844 224.445312 59.078125 L 223.617188 59.675781 C 223.117188 58.996094 222.449219 58.65625 221.617188 58.65625 C 220.941406 58.65625 220.390625 58.832031 219.972656 59.179688 C 219.550781 59.527344 219.332031 60.003906 219.3125 60.605469 C 219.3125 61.128906 219.472656 61.554688 219.789062 61.878906 C 220.109375 62.203125 220.664062 62.476562 221.457031 62.699219 C 222.503906 63.011719 223.199219 63.285156 223.546875 63.523438 C 223.894531 63.757812 224.15625 64.050781 224.335938 64.402344 C 224.515625 64.75 224.605469 65.1875 224.605469 65.710938 C 224.605469 66.542969 224.308594 67.230469 223.714844 67.769531 C 223.117188 68.308594 222.351562 68.585938 221.414062 68.605469 C 219.933594 68.605469 218.824219 68.085938 218.078125 67.050781 L 218.992188 66.4375 C 219.503906 67.292969 220.289062 67.722656 221.34375 67.734375 C 222.027344 67.734375 222.585938 67.539062 223.011719 67.15625 C 223.433594 66.773438 223.648438 66.292969 223.648438 65.710938 C 223.648438 65.371094 223.585938 65.09375 223.464844 64.875 C 223.347656 64.65625 223.160156 64.46875 222.914062 64.308594 C 222.667969 64.148438 222.355469 64 221.972656 63.871094 C 221.589844 63.738281 221.144531 63.585938 220.632812 63.414062 C 219.859375 63.160156 219.285156 62.804688 218.914062 62.351562 C 218.539062 61.894531 218.355469 61.3125 218.355469 60.605469 C 218.355469 59.769531 218.667969 59.09375 219.289062 58.570312 C 219.914062 58.046875 220.699219 57.785156 221.648438 57.785156 Z M 221.648438 57.785156 " fill-opacity="1" fill-rule="nonzero"/></g><g fill="#000000" fill-opacity="1"><g transform="translate(140.485524, 79.78963)"><g><path d="M 4.46875 -3.8125 C 4.894531 -3.6875 5.238281 -3.460938 5.5 -3.140625 C 5.75 -2.816406 5.875 -2.425781 5.875 -1.96875 C 5.875 -1.394531 5.679688 -0.925781 5.296875 -0.5625 C 4.898438 -0.1875 4.421875 0 3.859375 0 L 0.921875 0 L 0.921875 -7.484375 L 3.484375 -7.484375 C 4.046875 -7.484375 4.523438 -7.296875 4.921875 -6.921875 C 5.316406 -6.535156 5.515625 -6.0625 5.515625 -5.5 C 5.515625 -5.113281 5.425781 -4.773438 5.25 -4.484375 C 5.0625 -4.191406 4.800781 -3.96875 4.46875 -3.8125 Z M 4.828125 -5.453125 C 4.828125 -5.835938 4.691406 -6.160156 4.421875 -6.421875 C 4.140625 -6.671875 3.800781 -6.796875 3.40625 -6.796875 L 1.59375 -6.796875 L 1.59375 -4.0625 L 3.40625 -4.0625 C 3.800781 -4.0625 4.140625 -4.195312 4.421875 -4.46875 C 4.691406 -4.726562 4.828125 -5.054688 4.828125 -5.453125 Z M 3.78125 -0.671875 C 4.175781 -0.671875 4.507812 -0.800781 4.78125 -1.0625 C 5.050781 -1.320312 5.1875 -1.644531 5.1875 -2.03125 C 5.1875 -2.414062 5.050781 -2.742188 4.78125 -3.015625 C 4.5 -3.273438 4.164062 -3.40625 3.78125 -3.40625 L 1.59375 -3.40625 L 1.59375 -0.671875 Z M 3.78125 -0.671875 "/></g></g></g><g fill="#000000" fill-opacity="1"><g transform="translate(148.529249, 79.78963)"><g><path d="M 5.90625 -7.484375 L 3.3125 -3.53125 L 3.3125 0 L 2.625 0 L 2.625 -3.53125 L 0.03125 -7.484375 L 0.875 -7.484375 L 2.96875 -4.234375 L 5.078125 -7.484375 Z M 5.90625 -7.484375 "/></g></g></g><g fill="#000000" fill-opacity="1"><g transform="translate(156.064674, 79.78963)"><g/></g></g><g fill="#000000" fill-opacity="1"><g transform="translate(160.450637, 79.78963)"><g><path d="M 0.921875 0 L 0.921875 -7.484375 L 2.90625 -7.484375 C 3.9375 -7.484375 4.816406 -7.113281 5.546875 -6.375 C 6.273438 -5.644531 6.640625 -4.765625 6.640625 -3.734375 C 6.640625 -2.703125 6.273438 -1.820312 5.546875 -1.09375 C 4.816406 -0.363281 3.9375 0 2.90625 0 Z M 1.59375 -0.671875 L 2.890625 -0.671875 C 3.753906 -0.671875 4.484375 -0.96875 5.078125 -1.5625 C 5.671875 -2.144531 5.96875 -2.867188 5.96875 -3.734375 C 5.96875 -4.609375 5.671875 -5.335938 5.078125 -5.921875 C 4.484375 -6.503906 3.753906 -6.796875 2.890625 -6.796875 L 1.59375 -6.796875 Z M 1.59375 -0.671875 "/></g></g></g><g fill="#000000" fill-opacity="1"><g transform="translate(169.341529, 79.78963)"><g><path d="M 3.828125 -3.4375 L 6.046875 0 L 5.25 0 L 3.09375 -3.40625 L 1.59375 -3.40625 L 1.59375 0 L 0.921875 0 L 0.921875 -7.484375 L 3.515625 -7.484375 C 4.085938 -7.484375 4.578125 -7.28125 4.984375 -6.875 C 5.378906 -6.46875 5.578125 -5.976562 5.578125 -5.40625 C 5.578125 -4.90625 5.410156 -4.46875 5.078125 -4.09375 C 4.742188 -3.71875 4.328125 -3.5 3.828125 -3.4375 Z M 1.59375 -4.0625 L 3.484375 -4.0625 C 3.890625 -4.0625 4.226562 -4.191406 4.5 -4.453125 C 4.769531 -4.703125 4.90625 -5.023438 4.90625 -5.421875 C 4.90625 -5.816406 4.769531 -6.144531 4.5 -6.40625 C 4.226562 -6.664062 3.890625 -6.796875 3.484375 -6.796875 L 1.59375 -6.796875 Z M 1.59375 -4.0625 "/></g></g></g><g fill="#000000" fill-opacity="1"><g transform="translate(177.514864, 79.78963)"><g><path d="M 6.046875 0 L 5.34375 -1.78125 L 1.46875 -1.78125 L 0.765625 0 L 0.03125 0 L 3.03125 -7.484375 L 3.78125 -7.484375 L 6.78125 0 Z M 1.71875 -2.4375 L 5.078125 -2.4375 L 3.40625 -6.703125 Z M 1.71875 -2.4375 "/></g></g></g><g fill="#000000" fill-opacity="1"><g transform="translate(185.917389, 79.78963)"><g><path d="M 5 -6.828125 L 1.65625 -6.828125 L 1.65625 -4.0625 L 4.578125 -4.0625 L 4.578125 -3.40625 L 1.65625 -3.40625 L 1.65625 0 L 0.984375 0 L 0.984375 -7.484375 L 5 -7.484375 Z M 5 -6.828125 "/></g></g></g><g fill="#000000" fill-opacity="1"><g transform="translate(192.765118, 79.78963)"><g><path d="M 4.984375 -7.484375 L 4.984375 -6.8125 L 2.890625 -6.8125 L 2.890625 0 L 2.21875 0 L 2.21875 -6.8125 L 0.125 -6.8125 L 0.125 -7.484375 Z M 4.984375 -7.484375 "/></g></g></g><g fill="#000000" fill-opacity="1"><g transform="translate(198.267182, 79.78963)"><g><path d="M 0.984375 0.09375 C 0.847656 0.09375 0.734375 0.046875 0.640625 -0.046875 C 0.535156 -0.140625 0.484375 -0.253906 0.484375 -0.390625 C 0.484375 -0.515625 0.535156 -0.628906 0.640625 -0.734375 C 0.734375 -0.828125 0.847656 -0.875 0.984375 -0.875 C 1.109375 -0.875 1.222656 -0.828125 1.328125 -0.734375 C 1.421875 -0.628906 1.46875 -0.515625 1.46875 -0.390625 C 1.46875 -0.253906 1.421875 -0.140625 1.328125 -0.046875 C 1.222656 0.046875 1.109375 0.09375 0.984375 0.09375 Z M 0.984375 0.09375 "/></g></g></g><g fill="#000000" fill-opacity="1"><g transform="translate(201.815952, 79.78963)"><g><path d="M 0.921875 0 L 0.921875 -7.484375 L 2.90625 -7.484375 C 3.9375 -7.484375 4.816406 -7.113281 5.546875 -6.375 C 6.273438 -5.644531 6.640625 -4.765625 6.640625 -3.734375 C 6.640625 -2.703125 6.273438 -1.820312 5.546875 -1.09375 C 4.816406 -0.363281 3.9375 0 2.90625 0 Z M 1.59375 -0.671875 L 2.890625 -0.671875 C 3.753906 -0.671875 4.484375 -0.96875 5.078125 -1.5625 C 5.671875 -2.144531 5.96875 -2.867188 5.96875 -3.734375 C 5.96875 -4.609375 5.671875 -5.335938 5.078125 -5.921875 C 4.484375 -6.503906 3.753906 -6.796875 2.890625 -6.796875 L 1.59375 -6.796875 Z M 1.59375 -0.671875 "/></g></g></g><g fill="#000000" fill-opacity="1"><g transform="translate(210.706847, 79.78963)"><g><path d="M 5 -6.828125 L 1.65625 -6.828125 L 1.65625 -4.0625 L 4.578125 -4.0625 L 4.578125 -3.40625 L 1.65625 -3.40625 L 1.65625 -0.640625 L 5 -0.640625 L 5 0 L 0.984375 0 L 0.984375 -7.484375 L 5 -7.484375 Z M 5 -6.828125 "/></g></g></g><g clip-path="url(#e7f522ca0e)"><g fill="#000000" fill-opacity="1"><g transform="translate(217.793775, 79.78963)"><g><path d="M 6.03125 -7.484375 L 6.78125 -7.484375 L 3.78125 0 L 3.03125 0 L 0.03125 -7.484375 L 0.78125 -7.484375 L 3.40625 -0.78125 Z M 6.03125 -7.484375 "/></g></g></g></g></svg>