<?xml version="1.0"?>
<svg width="434" height="163" xmlns="http://www.w3.org/2000/svg" xmlns:svg="http://www.w3.org/2000/svg" class="class_logo" transform="translate(-50%, -50%) scale(1)">
 <g class="layer">
  <title>Layer 1</title>
  <g id="svg_11">
   <g fill="#8785a2" id="SvgjsG1007" transform="matrix(2.01389 0 0 2.01389 48.8076 -28.2549)">
    <path clip-rule="evenodd" d="m-19.74,50.03l13.5,13.5l13.5,-13.5l-13.5,-13.5l-13.5,13.5m13.5,-18l18,18l-18,18l-18,-18l18,-18" fill="#000000" fill-rule="evenodd" id="svg_1" xmlns="http://www.w3.org/2000/svg"/>
    <path clip-rule="evenodd" d="m-6.24,54.53l4.5,-4.5l-4.5,-4.5l-4.5,4.5l4.5,4.5m-9,-4.5l9,-9l9,9l-9,9l-9,-9" fill="#000000" fill-rule="evenodd" id="svg_2" xmlns="http://www.w3.org/2000/svg"/>
    <path clip-rule="evenodd" d="m34.26,72.53l-18,-18l-18,18l18,18l18,-18m4.5,0l-22.5,22.5l-22.5,-22.5l22.5,-22.5l22.5,22.5" fill="#000000" fill-rule="evenodd" id="svg_3" xmlns="http://www.w3.org/2000/svg"/>
    <path clip-rule="evenodd" d="m25.26,72.53l-9,-9l-9,9l9,9l9,-9m4.5,0l-13.5,13.5l-13.5,-13.5l13.5,-13.5l13.5,13.5" fill="#000000" fill-rule="evenodd" id="svg_4" xmlns="http://www.w3.org/2000/svg"/>
    <polyline clip-rule="evenodd" fill="#000000" fill-rule="evenodd" id="svg_5" points="20.763126373291016,72.52725410461426 16.263126373291016,77.02725410461426 11.763126373291016,72.52725410461426 16.263126373291016,68.02725410461426 20.763126373291016,72.52725410461426 " xmlns="http://www.w3.org/2000/svg"/>
    <path clip-rule="evenodd" d="m7.26,27.53l9,9l9,-9l-9,-9l-9,9m-4.5,0l13.5,-13.5l13.5,13.5l-13.5,13.5l-13.5,-13.5" fill="#000000" fill-rule="evenodd" id="svg_6" xmlns="http://www.w3.org/2000/svg"/>
    <polyline clip-rule="evenodd" fill="#000000" fill-rule="evenodd" id="svg_7" points="11.763126373291016,27.527254104614258 16.263126373291016,23.027246475219727 20.763126373291016,27.527254104614258 16.263126373291016,32.02724647521973 11.763126373291016,27.527254104614258 " xmlns="http://www.w3.org/2000/svg"/>
    <path clip-rule="evenodd" d="m38.76,45.53l-4.5,4.5l4.5,4.5l4.5,-4.5l-4.5,-4.5m9,4.5l-9,9l-9,-9l9,-9l9,9" fill="#000000" fill-rule="evenodd" id="svg_8" xmlns="http://www.w3.org/2000/svg"/>
   </g>
   <g fill="#8785a2" id="SvgjsG1008" transform="matrix(3.88349 0 0 3.88349 -6.05825 164.049)">
    <path d="m40.96,-30.67l6.04,0q3.26,0 5.34,1.84q1.12,0.98 1.7,2.37t0.58,3.09q0,1.66 -0.6,3.09t-1.68,2.41q-1,0.88 -2.37,1.35t-2.97,0.47l-6.04,0l0,-14.62zm6.04,11.88q1.88,0 3.15,-0.98t1.27,-3.58t-1.28,-3.58t-3.14,-0.98l-2.88,0l0,9.12l2.88,0zm12.93,2.48q-1.37,-0.54 -2.35,-1.83t-0.98,-3.37t0.99,-3.36t2.37,-1.82t2.62,-0.54q1.44,0 2.74,0.64t2.13,1.88t0.87,2.94q0,0.52 -0.02,0.9t-0.04,0.48l-8.68,0q0.24,1.16 1.2,1.58t1.8,0.42q1.08,0 1.72,-0.39t1.1,-0.89l2.32,1.34q-1.88,2.56 -5.14,2.56q-1.28,0 -2.65,-0.54zm0.61,-7.69q-0.78,0.61 -0.88,1.49l5.5,0q-0.06,-0.52 -0.4,-1t-0.91,-0.79t-1.29,-0.31q-1.24,0 -2.02,0.61zm8.38,-3.01l3.32,0l2.56,5.38l2.56,-5.38l3.34,0l-5.9,11.44l-5.88,-11.44zm13.52,10.96l0,-14.62l6.5,0q1.56,0 2.76,0.64t1.86,1.8t0.66,2.64q0,1.58 -0.8,2.82t-2.18,1.82q1.42,1.8 3.78,4.9l-3.78,0q-1.28,-1.6 -3.5,-4.56l-2.16,0l0,4.56l-3.14,0zm6.5,-7.3q0.82,0 1.48,-0.59t0.66,-1.65q0,-0.86 -0.46,-1.6t-1.68,-0.74l-3.36,0l0,4.58l3.36,0zm10.29,7.04q-1.37,-0.54 -2.35,-1.83t-0.98,-3.37t0.99,-3.36t2.37,-1.82t2.62,-0.54q1.44,0 2.74,0.64t2.13,1.88t0.87,2.94q0,0.52 -0.02,0.9t-0.04,0.48l-8.68,0q0.24,1.16 1.2,1.58t1.8,0.42q1.08,0 1.72,-0.39t1.1,-0.89l2.32,1.34q-1.88,2.56 -5.14,2.56q-1.28,0 -2.65,-0.54zm0.61,-7.69q-0.78,0.61 -0.88,1.49l5.5,0q-0.06,-0.52 -0.4,-1t-0.91,-0.79t-1.29,-0.31q-1.24,0 -2.02,0.61zm10.22,-7.17l3,0l0,15.12l-3,0l0,-15.12z" fill="#000000" id="svg_9"/>
   </g>
   <g fill="#8785a2" id="SvgjsG1009" transform="matrix(1.40287 0 0 1.40287 34.5691 246.312)">
    <path d="m143.77,-96.46q3.14,0 4.88,2.22l-1.08,0.9q-0.6,-0.9 -1.6,-1.41t-2.2,-0.51q-2.64,0 -4.3,1.74t-1.7,4.5q0,2.74 1.67,4.47t4.33,1.77q1.14,0 2.32,-0.57t1.86,-1.63l1.08,0.82q-1.88,2.58 -5.26,2.58q-3.28,-0.02 -5.27,-2.12t-2.05,-5.32q0,-3.26 2.05,-5.33t5.27,-2.11zm20.01,9.56l6.5,0l-3.2,-7.76l-3.3,7.76zm4.04,-9.2l5.96,14.16l-1.48,0l-1.54,-3.76l-7.5,0l-1.6,3.76l-1.38,0l6.18,-14.16l1.36,0zm22.89,6.24q1.54,0 2.38,-0.69t0.84,-1.83t-0.82,-1.82t-2.44,-0.7l-2.86,0l0,5.04l2.9,0zm-0.4,-6.24q4.9,0 4.94,3.72q0,3.14 -3.62,3.64l4.12,6.8l-1.5,0l-3.98,-6.72l-2.46,0l0,6.72l-1.32,0l0,-14.16l3.82,0zm27.36,0l0,1.2l-7.34,0l0,5.04l6.88,0l0,1.2l-6.88,0l0,5.52l7.66,0l0,1.2l-8.98,0l0,-14.16l8.66,0zm22.53,0l0,1.2l-7.34,0l0,5.04l6.88,0l0,1.2l-6.88,0l0,5.52l7.66,0l0,1.2l-8.98,0l0,-14.16l8.66,0zm18.09,6.24q1.54,0 2.38,-0.69t0.84,-1.83t-0.82,-1.82t-2.44,-0.7l-2.86,0l0,5.04l2.9,0zm-0.4,-6.24q4.9,0 4.94,3.72q0,3.14 -3.62,3.64l4.12,6.8l-1.5,0l-3.98,-6.72l-2.46,0l0,6.72l-1.32,0l0,-14.16l3.82,0zm22.75,-0.36q2.46,0 3.86,1.78l-1.14,0.82q-1.04,-1.4 -2.76,-1.4q-1.4,0 -2.27,0.72t-0.91,1.96q0,1.08 0.66,1.75t2.3,1.13q2.16,0.64 2.88,1.13t1.09,1.21t0.37,1.8q0,1.72 -1.23,2.83t-3.17,1.15q-3.06,0 -4.6,-2.14l1.26,-0.84q1.06,1.76 3.24,1.78q1.42,0 2.3,-0.79t0.88,-1.99q0,-0.7 -0.25,-1.15t-0.76,-0.78t-1.3,-0.6t-1.85,-0.63q-1.6,-0.52 -2.37,-1.46t-0.77,-2.4q0,-1.72 1.29,-2.8t3.25,-1.08z" fill="#000000" id="svg_10"/>
   </g>
  </g>
 </g>
</svg>