<?xml version="1.0"?>
<svg width="280" height="274.875" xmlns="http://www.w3.org/2000/svg" xmlns:svg="http://www.w3.org/2000/svg" class="snipcss-its8X" transform="translate(-50%, -50%) scale(1)">
 <title>SQ</title>

 <g class="layer">
  <title>Layer 1</title>
  <g fill="#8785a2" id="SvgjsG1007" transform="matrix(3.2923 0 0 3.2923 63.4061 -67.5916)">
   <path clip-rule="evenodd" d="m-9.42,57.91l13.5,13.5l13.5,-13.5l-13.5,-13.5l-13.5,13.5m13.5,-18l18,18l-18,18l-18,-18l18,-18" fill="#000000" fill-rule="evenodd" id="svg_1" xmlns="http://www.w3.org/2000/svg"/>
   <path clip-rule="evenodd" d="m4.08,62.41l4.5,-4.5l-4.5,-4.5l-4.5,4.5l4.5,4.5m-9,-4.5l9,-9l9,9l-9,9l-9,-9" fill="#000000" fill-rule="evenodd" id="svg_2" xmlns="http://www.w3.org/2000/svg"/>
   <path clip-rule="evenodd" d="m44.58,80.41l-18,-18l-18,18l18,18l18,-18m4.5,0l-22.5,22.5l-22.5,-22.5l22.5,-22.5l22.5,22.5" fill="#000000" fill-rule="evenodd" id="svg_3" xmlns="http://www.w3.org/2000/svg"/>
   <path clip-rule="evenodd" d="m35.58,80.41l-9,-9l-9,9l9,9l9,-9m4.5,0l-13.5,13.5l-13.5,-13.5l13.5,-13.5l13.5,13.5" fill="#000000" fill-rule="evenodd" id="svg_4" xmlns="http://www.w3.org/2000/svg"/>
   <polyline clip-rule="evenodd" fill="#000000" fill-rule="evenodd" id="svg_5" points="31.08071231842041,80.40621948242188 26.580716133117676,84.90621185302734 22.080714225769043,80.40621948242188 26.580716133117676,75.90621948242188 31.08071231842041,80.40621948242188 " xmlns="http://www.w3.org/2000/svg"/>
   <path clip-rule="evenodd" d="m17.58,35.41l9,9l9,-9l-9,-9l-9,9m-4.5,0l13.5,-13.5l13.5,13.5l-13.5,13.5l-13.5,-13.5" fill="#000000" fill-rule="evenodd" id="svg_6" xmlns="http://www.w3.org/2000/svg"/>
   <polyline clip-rule="evenodd" fill="#000000" fill-rule="evenodd" id="svg_7" points="22.080714225769043,35.406211853027344 26.580716133117676,30.90620994567871 31.08071231842041,35.406211853027344 26.580716133117676,39.906211853027344 22.080714225769043,35.406211853027344 " xmlns="http://www.w3.org/2000/svg"/>
   <path clip-rule="evenodd" d="m49.08,53.41l-4.5,4.5l4.5,4.5l4.5,-4.5l-4.5,-4.5m9,4.5l-9,9l-9,-9l9,-9l9,9" fill="#000000" fill-rule="evenodd" id="svg_8" xmlns="http://www.w3.org/2000/svg"/>
  </g>
  <g fill="#8785a2" id="SvgjsG1008" transform="matrix(3.88349 0 0 3.88349 -6.05825 164.049)"/>
 </g>
</svg>